<svg width="26" height="26" viewBox="0 0 26 26" fill="none" xmlns="http://www.w3.org/2000/svg">
<mask id="mask0_10090_309" style="mask-type:alpha" maskUnits="userSpaceOnUse" x="0" y="0" width="26" height="26">
<rect width="25.1429" height="25.1429" fill="#D9D9D9"/>
</mask>
<g mask="url(#mask0_10090_309)">
<path d="M20.9362 17.9989C21.3741 18.2299 21.7435 18.1765 22.0443 17.8389C22.3451 17.501 22.3868 17.1232 22.1692 16.7056L20.4084 13.4135L18.986 16.9877L20.9362 17.9989ZM15.537 17.0238H17.2575L19.7919 10.7501C19.8981 10.4828 19.9052 10.2642 19.8131 10.0943C19.7211 9.92444 19.5758 9.79655 19.3771 9.71064L17.2818 8.87255C17.044 8.77983 16.814 8.78053 16.5917 8.87464C16.3694 8.96858 16.2408 9.14109 16.2059 9.39217L15.537 17.0238ZM7.88547 17.0238H9.60593L8.93702 9.3521C8.9021 9.1197 8.77691 8.95845 8.56145 8.86836C8.34582 8.77844 8.11237 8.77983 7.86112 8.87255L5.76588 9.71064C5.5389 9.80336 5.39659 9.9447 5.33897 10.1347C5.28118 10.3248 5.29864 10.5434 5.39136 10.7905L7.88547 17.0238ZM4.20676 17.9989L6.1569 16.9877L4.75467 13.4135L2.97371 16.7457C2.74271 17.1701 2.78601 17.5395 3.10362 17.8538C3.42122 18.1681 3.78893 18.2164 4.20676 17.9989ZM11.1774 17.0238H13.9656L14.7715 7.92969C14.8064 7.69188 14.7469 7.48943 14.5931 7.32233C14.4395 7.15506 14.237 7.07143 13.9858 7.07143H11.1572C10.9571 7.07143 10.7701 7.15 10.5962 7.30714C10.4221 7.46429 10.3472 7.65836 10.3715 7.88936L11.1774 17.0238ZM3.65597 19.663C2.9855 19.663 2.42686 19.4215 1.98005 18.9386C1.53306 18.4558 1.30957 17.8794 1.30957 17.2092C1.30957 17.0065 1.33681 16.8081 1.39128 16.6139C1.44559 16.4198 1.51639 16.2301 1.60369 16.0448L3.96895 11.5238C3.73114 10.8724 3.72136 10.228 3.93962 9.59069C4.15787 8.95339 4.57194 8.5085 5.18183 8.25602L7.27707 7.41793C7.5484 7.31055 7.82305 7.24778 8.10102 7.22962C8.37899 7.21146 8.6402 7.26218 8.88464 7.38178C9.03515 6.85518 9.31521 6.40994 9.72483 6.04607C10.1345 5.68202 10.6171 5.5 11.1726 5.5H13.9858C14.5379 5.5 15.0204 5.67696 15.4333 6.03088C15.8462 6.3848 16.1347 6.82166 16.2986 7.34145C16.5228 7.22586 16.774 7.18457 17.0521 7.21757C17.3301 7.2504 17.6014 7.31718 17.8659 7.41793L19.9611 8.25602C20.5925 8.5085 21.0277 8.95173 21.2667 9.58571C21.5057 10.2197 21.4816 10.8483 21.1942 11.4714L23.5594 15.9924C23.6507 16.1642 23.7226 16.3408 23.775 16.522C23.8274 16.7032 23.8535 16.892 23.8535 17.0882C23.8535 17.8067 23.6074 18.4155 23.1152 18.9145C22.6229 19.4135 22.0189 19.663 21.3034 19.663C21.1284 19.663 20.9573 19.6429 20.79 19.6025C20.6226 19.5622 20.4552 19.5018 20.2877 19.4213L18.6236 18.5952H6.48717L4.96 19.4011C4.7599 19.5099 4.54837 19.5807 4.3254 19.6135C4.10244 19.6465 3.87929 19.663 3.65597 19.663Z" fill="#FEED3E"/>
</g>
</svg>
