<svg width="16" height="16" viewBox="0 0 16 16" fill="none" xmlns="http://www.w3.org/2000/svg">
<mask id="mask0_10256_100" style="mask-type:alpha" maskUnits="userSpaceOnUse" x="0" y="0" width="16" height="16">
<rect width="16" height="16" fill="#D9D9D9"/>
</mask>
<g mask="url(#mask0_10256_100)">
<path d="M8.00008 11.4101C8.76508 11.4101 9.41358 11.1441 9.94558 10.6121C10.4776 10.0801 10.7436 9.43158 10.7436 8.66658C10.7436 7.90159 10.4776 7.25309 9.94558 6.72109C9.41358 6.18909 8.76508 5.92309 8.00008 5.92309C7.23508 5.92309 6.58658 6.18909 6.05458 6.72109C5.52258 7.25309 5.25658 7.90159 5.25658 8.66658C5.25658 9.43158 5.52258 10.0801 6.05458 10.6121C6.58658 11.1441 7.23508 11.4101 8.00008 11.4101ZM8.00008 10.4103C7.50775 10.4103 7.09408 10.2427 6.75908 9.90758C6.42397 9.57258 6.25641 9.15892 6.25641 8.66658C6.25641 8.17425 6.42397 7.76058 6.75908 7.42558C7.09408 7.09047 7.50775 6.92292 8.00008 6.92292C8.49241 6.92292 8.90608 7.09047 9.24108 7.42558C9.57619 7.76058 9.74375 8.17425 9.74375 8.66658C9.74375 9.15892 9.57619 9.57258 9.24108 9.90758C8.90608 10.2427 8.49241 10.4103 8.00008 10.4103ZM2.87191 13.6666C2.53514 13.6666 2.25008 13.5499 2.01675 13.3166C1.78341 13.0833 1.66675 12.7982 1.66675 12.4614V4.87175C1.66675 4.53497 1.78341 4.24992 2.01675 4.01659C2.25008 3.78325 2.53514 3.66659 2.87191 3.66659H4.90775L6.14108 2.33325H9.85908L11.0924 3.66659H13.1282C13.465 3.66659 13.7501 3.78325 13.9834 4.01659C14.2167 4.24992 14.3334 4.53497 14.3334 4.87175V12.4614C14.3334 12.7982 14.2167 13.0833 13.9834 13.3166C13.7501 13.5499 13.465 13.6666 13.1282 13.6666H2.87191ZM2.87191 12.6666H13.1282C13.1881 12.6666 13.2373 12.6474 13.2757 12.6089C13.3142 12.5705 13.3334 12.5213 13.3334 12.4614V4.87175C13.3334 4.81186 13.3142 4.7627 13.2757 4.72425C13.2373 4.68581 13.1881 4.66659 13.1282 4.66659H10.6462L9.42308 3.33325H6.57708L5.35391 4.66659H2.87191C2.81203 4.66659 2.76286 4.68581 2.72441 4.72425C2.68597 4.7627 2.66675 4.81186 2.66675 4.87175V12.4614C2.66675 12.5213 2.68597 12.5705 2.72441 12.6089C2.76286 12.6474 2.81203 12.6666 2.87191 12.6666Z" fill="white"/>
</g>
</svg>
