<svg width="16" height="16" viewBox="0 0 16 16" fill="none" xmlns="http://www.w3.org/2000/svg">
<mask id="mask0_10246_60" style="mask-type:alpha" maskUnits="userSpaceOnUse" x="0" y="0" width="16" height="16">
<rect width="16" height="16" fill="#D9D9D9"/>
</mask>
<g mask="url(#mask0_10246_60)">
<path d="M9.828 10.9242L7.49984 8.596V5.3075H8.49984V8.187L10.5242 10.2113L9.828 10.9242ZM7.49984 3.99984V2.6665H8.49984V3.99984H7.49984ZM11.9998 8.49984V7.49984H13.3332V8.49984H11.9998ZM7.49984 13.3332V11.9998H8.49984V13.3332H7.49984ZM2.6665 8.49984V7.49984H3.99984V8.49984H2.6665ZM8.001 14.3332C7.125 14.3332 6.30161 14.1669 5.53084 13.8345C4.76006 13.5021 4.08961 13.0509 3.5195 12.481C2.94939 11.9111 2.498 11.2409 2.16534 10.4705C1.83278 9.70006 1.6665 8.87689 1.6665 8.001C1.6665 7.125 1.83273 6.30161 2.16517 5.53084C2.49762 4.76006 2.94878 4.08961 3.51867 3.5195C4.08856 2.94939 4.75873 2.498 5.52917 2.16534C6.29962 1.83278 7.12278 1.6665 7.99867 1.6665C8.87467 1.6665 9.69806 1.83273 10.4688 2.16517C11.2396 2.49761 11.9101 2.94878 12.4802 3.51867C13.0503 4.08856 13.5017 4.75873 13.8343 5.52917C14.1669 6.29962 14.3332 7.12278 14.3332 7.99867C14.3332 8.87467 14.1669 9.69806 13.8345 10.4688C13.5021 11.2396 13.0509 11.9101 12.481 12.4802C11.9111 13.0503 11.2409 13.5017 10.4705 13.8343C9.70006 14.1669 8.87689 14.3332 8.001 14.3332ZM7.99984 13.3332C9.48873 13.3332 10.7498 12.8165 11.7832 11.7832C12.8165 10.7498 13.3332 9.48873 13.3332 7.99984C13.3332 6.51095 12.8165 5.24984 11.7832 4.2165C10.7498 3.18317 9.48873 2.6665 7.99984 2.6665C6.51095 2.6665 5.24984 3.18317 4.2165 4.2165C3.18317 5.24984 2.6665 6.51095 2.6665 7.99984C2.6665 9.48873 3.18317 10.7498 4.2165 11.7832C5.24984 12.8165 6.51095 13.3332 7.99984 13.3332Z" fill="white"/>
</g>
</svg>
