<svg width="16" height="16" viewBox="0 0 16 16" fill="none" xmlns="http://www.w3.org/2000/svg">
<mask id="mask0_10166_139" style="mask-type:alpha" maskUnits="userSpaceOnUse" x="0" y="0" width="16" height="16">
<rect width="16" height="16" fill="#D9D9D9"/>
</mask>
<g mask="url(#mask0_10166_139)">
<path d="M5.50009 9.83318H6.50009V7.83318H9.16676V9.26268L11.0963 7.33318L9.16676 5.39735V6.83318H6.10259C5.93193 6.83318 5.78881 6.89068 5.67326 7.00568C5.55781 7.12068 5.50009 7.26318 5.50009 7.43318V9.83318ZM8.00143 14.2433C7.85098 14.2433 7.70276 14.2132 7.55676 14.153C7.41076 14.0928 7.27737 14.0024 7.15659 13.8818L2.11809 8.84335C1.99754 8.72313 1.90715 8.59029 1.84693 8.44485C1.7867 8.2994 1.75659 8.15151 1.75659 8.00118C1.75659 7.85074 1.7867 7.70251 1.84693 7.55651C1.90715 7.41051 1.99754 7.27713 2.11809 7.15635L7.15659 2.11785C7.27681 1.99729 7.40965 1.9069 7.55509 1.84668C7.70054 1.78646 7.84843 1.75635 7.99876 1.75635C8.1492 1.75635 8.29743 1.78646 8.44343 1.84668C8.58943 1.9069 8.72281 1.99729 8.84359 2.11785L13.8821 7.15635C14.0026 7.27657 14.093 7.4094 14.1533 7.55485C14.2135 7.70029 14.2436 7.84818 14.2436 7.99851C14.2436 8.14896 14.2135 8.29718 14.1533 8.44318C14.093 8.58918 14.0026 8.72257 13.8821 8.84335L8.84359 13.8818C8.72337 14.0024 8.59054 14.0928 8.44509 14.153C8.29965 14.2132 8.15176 14.2433 8.00143 14.2433ZM7.85909 13.1922C7.89754 13.2306 7.94454 13.2498 8.00009 13.2498C8.05565 13.2498 8.10265 13.2306 8.14109 13.1922L13.1924 8.14085C13.2309 8.1024 13.2501 8.0554 13.2501 7.99985C13.2501 7.94429 13.2309 7.89729 13.1924 7.85885L8.14109 2.80751C8.10265 2.76907 8.05565 2.74985 8.00009 2.74985C7.94454 2.74985 7.89754 2.76907 7.85909 2.80751L2.80776 7.85885C2.76931 7.89729 2.75009 7.94429 2.75009 7.99985C2.75009 8.0554 2.76931 8.1024 2.80776 8.14085L7.85909 13.1922Z" fill="white"/>
</g>
</svg>
