<svg width="16" height="16" viewBox="0 0 16 16" fill="none" xmlns="http://www.w3.org/2000/svg">
<mask id="mask0_10167_157" style="mask-type:alpha" maskUnits="userSpaceOnUse" x="0" y="0" width="16" height="16">
<rect width="16" height="16" fill="#D9D9D9"/>
</mask>
<g mask="url(#mask0_10167_157)">
<path d="M8.00008 14.3332C7.75908 14.3332 7.52947 14.2881 7.31125 14.198C7.09292 14.1079 6.89947 13.9777 6.73092 13.8075C6.3958 13.4767 6.10841 13.2603 5.86875 13.1582C5.62897 13.0561 5.26936 13.005 4.78992 13.005C4.29125 13.005 3.86741 12.8305 3.51841 12.4815C3.16941 12.1325 2.99491 11.7087 2.99491 11.21C2.99491 10.7349 2.94369 10.3762 2.84125 10.134C2.7388 9.89178 2.52253 9.60345 2.19241 9.269C2.02064 9.09723 1.89008 8.90239 1.80075 8.6845C1.71141 8.46661 1.66675 8.23884 1.66675 8.00117C1.66675 7.7635 1.71141 7.53528 1.80075 7.3165C1.89008 7.09773 2.02064 6.90245 2.19241 6.73067C2.52253 6.39856 2.7388 6.11228 2.84125 5.87184C2.94369 5.63128 2.99491 5.27056 2.99491 4.78967C2.99491 4.291 3.16941 3.86717 3.51841 3.51817C3.86741 3.16917 4.29125 2.99467 4.78992 2.99467C5.26503 2.99467 5.62369 2.94345 5.86592 2.841C6.10814 2.73856 6.39647 2.52228 6.73092 2.19217C6.8998 2.02195 7.09353 1.89178 7.31208 1.80167C7.53064 1.71156 7.75914 1.6665 7.99758 1.6665C8.23603 1.6665 8.46464 1.71117 8.68342 1.8005C8.90219 1.88984 9.09747 2.02039 9.26925 2.19217C9.60136 2.52228 9.88764 2.73856 10.1281 2.841C10.3686 2.94345 10.7294 2.99467 11.2102 2.99467C11.7089 2.99467 12.1327 3.16917 12.4817 3.51817C12.8307 3.86717 13.0052 4.291 13.0052 4.78967C13.0052 5.26478 13.0565 5.62345 13.1589 5.86567C13.2614 6.10789 13.4776 6.39623 13.8077 6.73067C13.9795 6.90245 14.1101 7.09728 14.1994 7.31517C14.2887 7.53306 14.3334 7.76084 14.3334 7.9985C14.3334 8.23617 14.2887 8.46439 14.1994 8.68317C14.1101 8.90195 13.9795 9.09723 13.8077 9.269C13.477 9.60412 13.2605 9.8915 13.1584 10.1312C13.0563 10.3709 13.0052 10.7306 13.0052 11.21C13.0052 11.7087 12.8307 12.1325 12.4817 12.4815C12.1327 12.8305 11.7089 13.005 11.2102 13.005C10.7351 13.005 10.3765 13.0562 10.1342 13.1587C9.89203 13.2611 9.60369 13.4774 9.26925 13.8075C9.10069 13.9777 8.90725 14.1079 8.68892 14.198C8.47069 14.2881 8.24108 14.3332 8.00008 14.3332ZM8.00092 13.3332C8.10636 13.3332 8.2093 13.3116 8.30975 13.2685C8.41019 13.2253 8.49458 13.1695 8.56292 13.1012C8.98425 12.6755 9.38242 12.3864 9.75742 12.2338C10.1323 12.0813 10.6166 12.005 11.2102 12.005C11.4355 12.005 11.6243 11.9288 11.7767 11.7765C11.9291 11.6241 12.0052 11.4352 12.0052 11.21C12.0052 10.6127 12.0815 10.1285 12.2341 9.7575C12.3866 9.38662 12.6736 8.98834 13.0949 8.56267C13.2539 8.40367 13.3334 8.21606 13.3334 7.99984C13.3334 7.78362 13.2561 7.59811 13.1014 7.44334C12.6757 7.01778 12.3866 6.6175 12.2341 6.2425C12.0815 5.86762 12.0052 5.38334 12.0052 4.78967C12.0052 4.56445 11.9291 4.37562 11.7767 4.22317C11.6243 4.07084 11.4355 3.99467 11.2102 3.99467C10.6067 3.99467 10.1202 3.91945 9.75075 3.769C9.3813 3.61845 8.98325 3.33045 8.55658 2.905C8.48814 2.83656 8.40369 2.77973 8.30325 2.7345C8.2028 2.68917 8.10175 2.6665 8.00008 2.6665C7.89842 2.6665 7.7963 2.68967 7.69375 2.736C7.59108 2.78245 7.50558 2.83878 7.43725 2.905C7.01591 3.32634 6.61775 3.61328 6.24275 3.76584C5.86786 3.91839 5.38358 3.99467 4.78992 3.99467C4.56469 3.99467 4.37586 4.07084 4.22341 4.22317C4.07108 4.37562 3.99492 4.56445 3.99492 4.78967C3.99492 5.39134 3.91864 5.87761 3.76608 6.2485C3.61353 6.6195 3.32441 7.01778 2.89875 7.44334C2.74408 7.59811 2.66675 7.78362 2.66675 7.99984C2.66675 8.21606 2.74408 8.40367 2.89875 8.56267C3.32441 8.98834 3.61353 9.38728 3.76608 9.7595C3.91864 10.1317 3.99492 10.6152 3.99492 11.21C3.99492 11.4352 4.07108 11.6241 4.22341 11.7765C4.37586 11.9288 4.56469 12.005 4.78992 12.005C5.39203 12.005 5.87736 12.0813 6.24591 12.2338C6.61447 12.3864 7.01369 12.6755 7.44358 13.1012C7.51203 13.1695 7.59564 13.2253 7.69442 13.2685C7.7933 13.3116 7.89547 13.3332 8.00092 13.3332ZM9.62308 10.4422C9.85308 10.4422 10.0471 10.3631 10.2052 10.205C10.3634 10.0469 10.4424 9.85284 10.4424 9.62284C10.4424 9.39273 10.3634 9.19717 10.2052 9.03617C10.0471 8.87517 9.85308 8.79467 9.62308 8.79467C9.39297 8.79467 9.19741 8.87517 9.03641 9.03617C8.87541 9.19717 8.79492 9.39273 8.79492 9.62284C8.79492 9.85284 8.87541 10.0469 9.03641 10.205C9.19741 10.3631 9.39297 10.4422 9.62308 10.4422ZM6.34491 10.3512L10.3514 6.35117L9.64875 5.6485L5.64875 9.655L6.34491 10.3512ZM6.96375 6.9635C7.12475 6.8025 7.20525 6.60695 7.20525 6.37684C7.20525 6.14684 7.12475 5.95278 6.96375 5.79467C6.80275 5.63656 6.60719 5.5575 6.37708 5.5575C6.14708 5.5575 5.95303 5.63656 5.79492 5.79467C5.6368 5.95278 5.55775 6.14684 5.55775 6.37684C5.55775 6.60695 5.6368 6.8025 5.79492 6.9635C5.95303 7.1245 6.14708 7.205 6.37708 7.205C6.60719 7.205 6.80275 7.1245 6.96375 6.9635Z" fill="white"/>
</g>
</svg>
