<svg width="16" height="16" viewBox="0 0 16 16" fill="none" xmlns="http://www.w3.org/2000/svg">
<mask id="mask0_10090_415" style="mask-type:alpha" maskUnits="userSpaceOnUse" x="0" y="0" width="16" height="16">
<rect width="16" height="16" fill="#D9D9D9"/>
</mask>
<g mask="url(#mask0_10090_415)">
<path d="M4.26931 14.3334V8.43858C3.66931 8.28303 3.19665 7.99092 2.85131 7.56225C2.50598 7.13358 2.33331 6.63208 2.33331 6.05775V1.66675H3.33331V5.55775H4.26931V1.66675H5.26915V5.55775H6.20515V1.66675H7.20515V6.05775C7.20515 6.63208 7.03248 7.13358 6.68715 7.56225C6.34181 7.99092 5.86915 8.28303 5.26915 8.43858V14.3334H4.26931ZM10.7243 14.3334V8.20142C10.1243 7.99708 9.6517 7.60325 9.30648 7.01991C8.96115 6.43658 8.78848 5.75436 8.78848 4.97325C8.78848 4.05692 9.02715 3.27675 9.50448 2.63275C9.98181 1.98875 10.5551 1.66675 11.2243 1.66675C11.8979 1.66675 12.4733 1.99047 12.9506 2.63792C13.428 3.28536 13.6666 4.06719 13.6666 4.98341C13.6666 5.76886 13.4929 6.45153 13.1455 7.03141C12.798 7.61141 12.3243 8.00141 11.7243 8.20142V14.3334H10.7243Z" fill="white"/>
</g>
</svg>
