<svg width="26" height="26" viewBox="0 0 26 26" fill="none" xmlns="http://www.w3.org/2000/svg">
<mask id="mask0_10090_319" style="mask-type:alpha" maskUnits="userSpaceOnUse" x="0" y="0" width="26" height="26">
<rect width="25.1429" height="25.1429" fill="#D9D9D9"/>
</mask>
<g mask="url(#mask0_10090_319)">
<path d="M22 21.2546V5.29862C22 5.20451 21.9698 5.12725 21.9094 5.06683C21.849 5.00642 21.7717 4.97621 21.6776 4.97621H3.46524C3.37113 4.97621 3.29387 5.00642 3.23346 5.06683C3.17305 5.12725 3.14284 5.20451 3.14284 5.29862V13.3572H1.57141V5.29862C1.57141 4.77621 1.7564 4.32992 2.12639 3.95976C2.49655 3.58978 2.94283 3.40479 3.46524 3.40479H21.6776C22.2 3.40479 22.6463 3.58978 23.0164 3.95976C23.3864 4.32992 23.5714 4.77621 23.5714 5.29862V19.4918C23.5714 19.9471 23.4199 20.343 23.117 20.6792C22.8142 21.0157 22.4419 21.2075 22 21.2546ZM6.83675 13.2694C6.12017 12.553 5.76189 11.6891 5.76189 10.6776C5.76189 9.66632 6.12017 8.80238 6.83675 8.08581C7.55332 7.36924 8.41725 7.01095 9.42855 7.01095C10.4399 7.01095 11.3038 7.36924 12.0204 8.08581C12.7369 8.80238 13.0952 9.66632 13.0952 10.6776C13.0952 11.6891 12.7369 12.553 12.0204 13.2694C11.3038 13.986 10.4399 14.3443 9.42855 14.3443C8.41725 14.3443 7.55332 13.986 6.83675 13.2694ZM10.9083 12.1574C11.3186 11.7471 11.5238 11.2538 11.5238 10.6776C11.5238 10.1014 11.3186 9.60817 10.9083 9.19786C10.498 8.78754 10.0047 8.58238 9.42855 8.58238C8.85236 8.58238 8.35911 8.78754 7.94879 9.19786C7.53848 9.60817 7.33332 10.1014 7.33332 10.6776C7.33332 11.2538 7.53848 11.7471 7.94879 12.1574C8.35911 12.5677 8.85236 12.7729 9.42855 12.7729C10.0047 12.7729 10.498 12.5677 10.9083 12.1574ZM1.57141 22.3224V19.9933C1.57141 19.4803 1.71074 19.0052 1.98941 18.568C2.26808 18.1308 2.64051 17.7947 3.1067 17.5597C4.14209 17.0521 5.18666 16.6714 6.24039 16.4175C7.29412 16.1636 8.35684 16.0367 9.42855 16.0367C10.5003 16.0367 11.563 16.1636 12.6167 16.4175C13.6705 16.6714 14.715 17.0521 15.7504 17.5597C16.2166 17.7947 16.589 18.1308 16.8677 18.568C17.1464 19.0052 17.2857 19.4803 17.2857 19.9933V22.3224H1.57141ZM3.14284 20.751H15.7143V19.9933C15.7143 19.7812 15.6528 19.5847 15.5299 19.404C15.407 19.2235 15.2401 19.0761 15.0294 18.9619C14.1267 18.5174 13.207 18.1806 12.2702 17.9515C11.3335 17.7226 10.3863 17.6081 9.42855 17.6081C8.47086 17.6081 7.52363 17.7226 6.58689 17.9515C5.65014 18.1806 4.73042 18.5174 3.82772 18.9619C3.61697 19.0761 3.45014 19.2235 3.32722 19.404C3.2043 19.5847 3.14284 19.7812 3.14284 19.9933V20.751Z" fill="#FEED3E"/>
</g>
</svg>
