<svg width="16" height="16" viewBox="0 0 16 16" fill="none" xmlns="http://www.w3.org/2000/svg">
<mask id="mask0_10090_409" style="mask-type:alpha" maskUnits="userSpaceOnUse" x="0" y="0" width="16" height="16">
<rect width="16" height="16" fill="#D9D9D9"/>
</mask>
<g mask="url(#mask0_10090_409)">
<path d="M11.9744 8.49989V7.49989H14.3848V8.49989H11.9744ZM12.7359 12.9871L10.8078 11.5409L11.4154 10.7436L13.3436 12.1896L12.7359 12.9871ZM11.3898 5.23073L10.7821 4.43323L12.7102 2.98706L13.3181 3.78456L11.3898 5.23073ZM3.50008 12.3204V9.71789H2.82058C2.48814 9.71789 2.2042 9.60012 1.96875 9.36456C1.7332 9.12912 1.61542 8.84517 1.61542 8.51273V7.48706C1.61542 7.15462 1.7332 6.87067 1.96875 6.63523C2.2042 6.39967 2.48814 6.28189 2.82058 6.28189H5.39758L8.38475 4.49989V11.4999L5.39758 9.71789H4.50008V12.3204H3.50008ZM7.38475 9.72306V6.27673L5.67442 7.28189H2.82058C2.76936 7.28189 2.72236 7.30328 2.67958 7.34606C2.63681 7.38884 2.61542 7.43584 2.61542 7.48706V8.51273C2.61542 8.56395 2.63681 8.61095 2.67958 8.65373C2.72236 8.69651 2.76936 8.71789 2.82058 8.71789H5.67442L7.38475 9.72306ZM9.30775 10.0794V5.92039C9.56931 6.15717 9.77997 6.45545 9.93975 6.81523C10.0996 7.17512 10.1796 7.57001 10.1796 7.99989C10.1796 8.42978 10.0996 8.82467 9.93975 9.18456C9.77997 9.54434 9.56931 9.84262 9.30775 10.0794Z" fill="white"/>
</g>
</svg>
