<svg width="16" height="16" viewBox="0 0 16 16" fill="none" xmlns="http://www.w3.org/2000/svg">
<mask id="mask0_10167_151" style="mask-type:alpha" maskUnits="userSpaceOnUse" x="0" y="0" width="16" height="16">
<rect width="16" height="16" fill="#D9D9D9"/>
</mask>
<g mask="url(#mask0_10167_151)">
<path d="M9.35904 13.4065V12.3732C10.3206 12.0673 11.0951 11.5118 11.6827 10.7065C12.2704 9.90144 12.5642 8.99377 12.5642 7.98355C12.5642 6.97333 12.2704 6.06566 11.6827 5.26055C11.0951 4.45532 10.3206 3.89977 9.35904 3.59388V2.56055C10.6 2.89299 11.6111 3.55921 12.3924 4.55921C13.1735 5.55921 13.564 6.70066 13.564 7.98355C13.564 9.26644 13.1735 10.4079 12.3924 11.4079C11.6111 12.4079 10.6 13.0741 9.35904 13.4065ZM2.43604 9.66688V6.33355H4.91037L7.7692 3.47471V12.5257L4.91037 9.66688H2.43604ZM9.35904 10.436V5.53105C9.80859 5.77549 10.156 6.11971 10.4014 6.56371C10.6466 7.00771 10.7692 7.48655 10.7692 8.00021C10.7692 8.50699 10.6455 8.97855 10.398 9.41488C10.1506 9.85121 9.80426 10.1916 9.35904 10.436ZM6.7692 5.90021L5.33587 7.33355H3.43587V8.66688H5.33587L6.7692 10.1002V5.90021Z" fill="white"/>
</g>
</svg>
