<svg width="16" height="16" viewBox="0 0 16 16" fill="none" xmlns="http://www.w3.org/2000/svg">
<mask id="mask0_10124_41" style="mask-type:alpha" maskUnits="userSpaceOnUse" x="0" y="0" width="16" height="16">
<rect width="16" height="16" fill="#D9D9D9"/>
</mask>
<g mask="url(#mask0_10124_41)">
<path d="M14 13.5257V3.37191C14 3.31203 13.9808 3.26286 13.9423 3.22442C13.9039 3.18597 13.8547 3.16675 13.7948 3.16675H2.20517C2.14528 3.16675 2.09611 3.18597 2.05767 3.22442C2.01922 3.26286 2 3.31203 2 3.37191V8.50008H1V3.37191C1 3.03947 1.11772 2.75547 1.35317 2.51991C1.58872 2.28447 1.87272 2.16675 2.20517 2.16675H13.7948C14.1273 2.16675 14.4113 2.28447 14.6468 2.51991C14.8823 2.75547 15 3.03947 15 3.37191V12.4039C15 12.6937 14.9036 12.9456 14.7108 13.1596C14.5182 13.3737 14.2812 13.4957 14 13.5257ZM4.35067 8.44425C3.89467 7.98836 3.66667 7.43858 3.66667 6.79492C3.66667 6.15136 3.89467 5.60158 4.35067 5.14558C4.80667 4.68958 5.35644 4.46158 6 4.46158C6.64356 4.46158 7.19333 4.68958 7.64933 5.14558C8.10533 5.60158 8.33333 6.15136 8.33333 6.79492C8.33333 7.43858 8.10533 7.98836 7.64933 8.44425C7.19333 8.90025 6.64356 9.12825 6 9.12825C5.35644 9.12825 4.80667 8.90025 4.35067 8.44425ZM6.94167 7.73658C7.20278 7.47547 7.33333 7.16158 7.33333 6.79492C7.33333 6.42825 7.20278 6.11436 6.94167 5.85325C6.68056 5.59214 6.36667 5.46158 6 5.46158C5.63333 5.46158 5.31944 5.59214 5.05833 5.85325C4.79722 6.11436 4.66667 6.42825 4.66667 6.79492C4.66667 7.16158 4.79722 7.47547 5.05833 7.73658C5.31944 7.99769 5.63333 8.12825 6 8.12825C6.36667 8.12825 6.68056 7.99769 6.94167 7.73658ZM1 14.2052V12.7231C1 12.3966 1.08867 12.0943 1.266 11.8161C1.44333 11.5379 1.68033 11.324 1.977 11.1744C2.63589 10.8514 3.30061 10.6091 3.97117 10.4476C4.64172 10.286 5.318 10.2052 6 10.2052C6.682 10.2052 7.35828 10.286 8.02883 10.4476C8.69939 10.6091 9.36411 10.8514 10.023 11.1744C10.3197 11.324 10.5567 11.5379 10.734 11.8161C10.9113 12.0943 11 12.3966 11 12.7231V14.2052H1ZM2 13.2052H10V12.7231C10 12.5881 9.96089 12.4631 9.88267 12.3481C9.80445 12.2332 9.69828 12.1394 9.56417 12.0667C8.98972 11.7839 8.40445 11.5695 7.80833 11.4237C7.21222 11.2781 6.60944 11.2052 6 11.2052C5.39056 11.2052 4.78778 11.2781 4.19167 11.4237C3.59556 11.5695 3.01028 11.7839 2.43583 12.0667C2.30172 12.1394 2.19556 12.2332 2.11733 12.3481C2.03911 12.4631 2 12.5881 2 12.7231V13.2052Z" fill="white"/>
</g>
</svg>
