<svg width="16" height="16" viewBox="0 0 16 16" fill="none" xmlns="http://www.w3.org/2000/svg">
<mask id="mask0_10196_851" style="mask-type:alpha" maskUnits="userSpaceOnUse" x="0" y="0" width="16" height="16">
<rect width="16" height="16" fill="#D9D9D9"/>
</mask>
<g mask="url(#mask0_10196_851)">
<path d="M7.31018 10.513C7.31018 9.75829 7.39712 9.18051 7.57101 8.77962C7.7449 8.37874 8.10796 7.93429 8.66018 7.44629C9.09007 7.0634 9.4159 6.71618 9.63768 6.40462C9.85946 6.09307 9.97034 5.73985 9.97034 5.34496C9.97034 4.82107 9.79196 4.38562 9.43518 4.03862C9.07829 3.69162 8.58701 3.51812 7.96135 3.51812C7.39046 3.51812 6.94601 3.67107 6.62801 3.97696C6.31012 4.28296 6.06868 4.62446 5.90368 5.00146L4.68701 4.46679C4.94601 3.82835 5.35029 3.29607 5.89984 2.86996C6.4494 2.44396 7.13657 2.23096 7.96135 2.23096C9.03823 2.23096 9.86707 2.53457 10.4478 3.14179C11.0286 3.74901 11.319 4.46974 11.319 5.30396C11.319 5.82529 11.206 6.28535 10.98 6.68412C10.7539 7.08279 10.411 7.49796 9.95118 7.92962C9.37251 8.4604 9.01418 8.87896 8.87618 9.18529C8.73807 9.49174 8.66901 9.93429 8.66901 10.513H7.31018ZM7.96135 14.3335C7.68868 14.3335 7.45385 14.235 7.25685 14.038C7.05985 13.841 6.96134 13.6061 6.96134 13.3335C6.96134 13.0608 7.05985 12.826 7.25685 12.629C7.45385 12.432 7.68868 12.3335 7.96135 12.3335C8.23401 12.3335 8.46885 12.432 8.66585 12.629C8.86285 12.826 8.96135 13.0608 8.96135 13.3335C8.96135 13.6061 8.86285 13.841 8.66585 14.038C8.46885 14.235 8.23401 14.3335 7.96135 14.3335Z" fill="white"/>
</g>
</svg>
