<svg width="26" height="26" viewBox="0 0 26 26" fill="none" xmlns="http://www.w3.org/2000/svg">
<mask id="mask0_10090_337" style="mask-type:alpha" maskUnits="userSpaceOnUse" x="0" y="0" width="26" height="26">
<rect width="25.1429" height="25.1429" fill="#D9D9D9"/>
</mask>
<g mask="url(#mask0_10090_337)">
<path d="M11.7857 9.16671V6.02386H8.64284V4.45243H11.7857V1.30957H13.3571V4.45243H16.5V6.02386H13.3571V9.16671H11.7857ZM6.19613 22.0493C5.83959 21.6927 5.66132 21.26 5.66132 20.751C5.66132 20.2419 5.83959 19.809 6.19613 19.4525C6.55267 19.096 6.98542 18.9177 7.49439 18.9177C8.00353 18.9177 8.43637 19.096 8.79291 19.4525C9.14945 19.809 9.32772 20.2419 9.32772 20.751C9.32772 21.26 9.14945 21.6927 8.79291 22.0493C8.43637 22.406 8.00353 22.5844 7.49439 22.5844C6.98542 22.5844 6.55267 22.406 6.19613 22.0493ZM16.3499 22.0493C15.9934 21.6927 15.8151 21.26 15.8151 20.751C15.8151 20.2419 15.9934 19.809 16.3499 19.4525C16.7065 19.096 17.1393 18.9177 17.6484 18.9177C18.1574 18.9177 18.5902 19.096 18.9467 19.4525C19.3032 19.809 19.4815 20.2419 19.4815 20.751C19.4815 21.26 19.3032 21.6927 18.9467 22.0493C18.5902 22.406 18.1574 22.5844 17.6484 22.5844C17.1393 22.5844 16.7065 22.406 16.3499 22.0493ZM1.57141 3.92862V2.35719H4.56917L8.94089 11.5844H16.083C16.1434 11.5844 16.1971 11.5693 16.2441 11.539C16.2911 11.5088 16.3314 11.4668 16.3651 11.4131L20.2392 4.45243H22.028L17.7409 12.1967C17.5691 12.4989 17.3418 12.7343 17.0591 12.9028C16.7763 13.0715 16.4664 13.1558 16.1294 13.1558H8.4857L7.27282 15.3718C7.21904 15.4524 7.21738 15.5397 7.26784 15.6337C7.31813 15.7278 7.39364 15.7748 7.49439 15.7748H19.4815V17.3463H7.49439C6.79597 17.3463 6.2685 17.0477 5.91196 16.4505C5.55542 15.8536 5.54573 15.2495 5.88289 14.6384L7.37758 11.951L3.56608 3.92862H1.57141Z" fill="#FEED3E"/>
</g>
</svg>
