<svg width="16" height="16" viewBox="0 0 16 16" fill="none" xmlns="http://www.w3.org/2000/svg">
<mask id="mask0_10196_839" style="mask-type:alpha" maskUnits="userSpaceOnUse" x="0" y="0" width="16" height="16">
<rect width="16" height="16" fill="#D9D9D9"/>
</mask>
<g mask="url(#mask0_10196_839)">
<path d="M2.57046 12.4925C2.20724 12.1285 2.02563 11.6866 2.02563 11.1667H0.897461V4.20517C0.897461 3.86839 1.01413 3.58333 1.24746 3.35C1.48079 3.11667 1.76579 3 2.10246 3H11.1795V5.5385H12.9486L15.1025 8.42317V11.1667H13.8975C13.8975 11.6866 13.7153 12.1285 13.351 12.4925C12.9867 12.8565 12.5445 13.0385 12.0241 13.0385C11.5038 13.0385 11.062 12.8565 10.6986 12.4925C10.3354 12.1285 10.1538 11.6866 10.1538 11.1667H5.76913C5.76913 11.688 5.58702 12.1303 5.22279 12.4935C4.85857 12.8568 4.41629 13.0385 3.89596 13.0385C3.37552 13.0385 2.93368 12.8565 2.57046 12.4925ZM4.51663 11.7858C4.68496 11.6175 4.76913 11.4111 4.76913 11.1667C4.76913 10.9222 4.68496 10.7158 4.51663 10.5473C4.34829 10.379 4.14191 10.2948 3.89746 10.2948C3.65302 10.2948 3.44657 10.379 3.27813 10.5473C3.10979 10.7158 3.02563 10.9222 3.02563 11.1667C3.02563 11.4111 3.10979 11.6175 3.27813 11.7858C3.44657 11.9543 3.65302 12.0385 3.89746 12.0385C4.14191 12.0385 4.34829 11.9543 4.51663 11.7858ZM1.89746 10.1667H2.37946C2.52135 9.91967 2.72624 9.71261 2.99413 9.5455C3.26213 9.37839 3.56324 9.29483 3.89746 9.29483C4.22302 9.29483 4.52191 9.37733 4.79413 9.54233C5.06635 9.70733 5.27341 9.91544 5.41529 10.1667H10.1795V4H2.10246C2.05124 4 2.00424 4.02139 1.96146 4.06417C1.91879 4.10683 1.89746 4.15383 1.89746 4.20517V10.1667ZM12.6448 11.7858C12.8132 11.6175 12.8975 11.4111 12.8975 11.1667C12.8975 10.9222 12.8132 10.7158 12.6448 10.5473C12.4765 10.379 12.2701 10.2948 12.0256 10.2948C11.7812 10.2948 11.5747 10.379 11.4063 10.5473C11.238 10.7158 11.1538 10.9222 11.1538 11.1667C11.1538 11.4111 11.238 11.6175 11.4063 11.7858C11.5747 11.9543 11.7812 12.0385 12.0256 12.0385C12.2701 12.0385 12.4765 11.9543 12.6448 11.7858ZM11.1795 8.83333H14.1666L12.4358 6.5385H11.1795V8.83333Z" fill="white"/>
</g>
</svg>
