<svg width="26" height="26" viewBox="0 0 26 26" fill="none" xmlns="http://www.w3.org/2000/svg">
<mask id="mask0_10090_328" style="mask-type:alpha" maskUnits="userSpaceOnUse" x="0" y="0" width="26" height="26">
<rect width="25.1429" height="25.1429" fill="#D9D9D9"/>
</mask>
<g mask="url(#mask0_10090_328)">
<path d="M16.2381 17.8499C17.0305 17.8499 17.702 18.1261 18.2527 18.6784C18.8034 19.2308 19.0788 19.9015 19.0788 20.6906C19.0788 21.4796 18.8025 22.1503 18.2501 22.7028C17.6978 23.2551 17.0272 23.5312 16.2381 23.5312C15.6015 23.5312 15.0354 23.3408 14.5397 22.96C14.0442 22.5792 13.7044 22.0846 13.5204 21.4763H8.7034C8.18256 21.4763 7.73671 21.2909 7.36586 20.92C6.995 20.5491 6.80957 20.1033 6.80957 19.5825V9.75107C6.80957 9.23023 6.995 8.78438 7.36586 8.41352C7.73671 8.04266 8.18256 7.85724 8.7034 7.85724H14.6667V4.19057H14.3443C13.9158 4.19057 13.5468 4.03578 13.2372 3.72621C12.9277 3.41664 12.7729 3.04762 12.7729 2.61914H16.2381V17.8499ZM9.69052 19.9049V9.42866H8.7034C8.60929 9.42866 8.53203 9.45887 8.47162 9.51928C8.41121 9.5797 8.381 9.65696 8.381 9.75107V19.5825C8.381 19.6766 8.41121 19.7538 8.47162 19.8142C8.53203 19.8746 8.60929 19.9049 8.7034 19.9049H9.69052ZM11.262 9.42866V19.9049H13.5303C13.5869 19.5691 13.7189 19.2703 13.9263 19.0084C14.1337 18.7465 14.3805 18.5382 14.6667 18.3837V9.42866H11.262ZM17.3664 21.8175C17.6753 21.5078 17.8297 21.1317 17.8297 20.6893C17.8297 20.2468 17.6749 19.8712 17.3651 19.5623C17.0554 19.2534 16.6793 19.099 16.2368 19.099C15.7944 19.099 15.4187 19.2538 15.1099 19.5636C14.801 19.8733 14.6465 20.2493 14.6465 20.6916C14.6465 21.1341 14.8014 21.5098 15.1112 21.8189C15.4207 22.1277 15.7967 22.2822 16.2392 22.2822C16.6816 22.2822 17.0574 22.1273 17.3664 21.8175Z" fill="#FEED3E"/>
</g>
</svg>
